<!--
  - Copyright (c) 2021-2024 Bearsampp
  - License:  GNU General Public License version 3 or later; see LICENSE.txt
  - Author: Bear
  - Website: https://bearsampp.com
  - Github: https://github.com/Bearsampp
  -->

<svg id="Layer_1" data-name="Layer 1" xmlns="http://www.w3.org/2000/svg" viewBox="0 0 128 128" width="64" height="64">
  <defs>
    <style>
      .cls-1{fill:#fff;}
      .cls-2{fill:#d92d27;}
    </style>
  </defs>
  <title>no-wifi</title>
  <path class="cls-1" d="M101.68,32.93,32.92,101.68a49.29,49.29,0,0,0,77.83-40.24h0A49.34,49.34,0,0,0,108,45.15a48.85,48.85,0,0,0-6.32-12.22ZM24,93.5,93.49,24A49.31,49.31,0,0,0,24,93.5Z"/>
  <path d="M30.29,52A3,3,0,0,1,26,51.63v0a3,3,0,0,1,.34-4.24h0A59.27,59.27,0,0,1,43.27,37a48,48,0,0,1,36.4.31A61,61,0,0,1,96.46,47.9a1.29,1.29,0,0,1,.17.16,3,3,0,0,1,.27,4.07,1.54,1.54,0,0,1-.17.19,3,3,0,0,1-4.16.19A55.23,55.23,0,0,0,77.47,43a41.86,41.86,0,0,0-32.08-.27A53.38,53.38,0,0,0,30.29,52ZM61.44,76.09A6.59,6.59,0,1,1,56.77,78h0a6.62,6.62,0,0,1,4.67-1.93ZM50.05,72.5a3,3,0,0,1-4.16-.35,1.37,1.37,0,0,1-.16-.18,3,3,0,0,1,.43-4.07l.17-.14a27.64,27.64,0,0,1,7.33-4.33,21.68,21.68,0,0,1,7.84-1.52,21.35,21.35,0,0,1,7.8,1.47,27.12,27.12,0,0,1,7.34,4.36A3,3,0,0,1,77.08,72h0a3,3,0,0,1-2,1.1,3.06,3.06,0,0,1-2.21-.66h0a21.27,21.27,0,0,0-5.62-3.37,15.12,15.12,0,0,0-11.47,0,22,22,0,0,0-5.7,3.41Zm-9.56-9.71-.15.13a3.06,3.06,0,0,1-2.08.67,3,3,0,0,1-2-1,1,1,0,0,1-.14-.15,3,3,0,0,1,.34-4.16,45.78,45.78,0,0,1,12.36-8,30.76,30.76,0,0,1,25.6.42,45.74,45.74,0,0,1,12.11,8.41l.08.07a3.09,3.09,0,0,1,.87,2,3,3,0,0,1-.82,2.15l-.07.08a3,3,0,0,1-2,.87,3,3,0,0,1-2.15-.81A40.13,40.13,0,0,0,72,56.28a24.75,24.75,0,0,0-21-.35,39.68,39.68,0,0,0-10.5,6.86Z"/>
  <path class="cls-2" d="M61.44,0A61.31,61.31,0,1,1,38,4.66,61.29,61.29,0,0,1,61.44,0Zm40.24,32.93L32.93,101.68A49.44,49.44,0,0,0,80.31,107,49.53,49.53,0,0,0,107,80.3a49,49,0,0,0,3.73-18.86h0a48.93,48.93,0,0,0-9.08-28.51ZM24,93.5,93.5,24A49.32,49.32,0,0,0,24,93.5Z"/>
</svg>
