<?xml version="1.0" encoding="UTF-8"?>
<!--
  - Copyright (c) 2021-2024 Bearsampp
  - License:  GNU General Public License version 3 or later; see LICENSE.txt
  - Author: Bear
  - Website: https://bearsampp.com
  - Github: https://github.com/Bearsampp
  -->

<svg xmlns="http://www.w3.org/2000/svg" xmlns:xlink="http://www.w3.org/1999/xlink" width="48px" height="48px" viewBox="0 0 48 48" version="1.1">
<defs>
<filter id="alpha" filterUnits="objectBoundingBox" x="0%" y="0%" width="100%" height="100%">
  <feColorMatrix type="matrix" in="SourceGraphic" values="0 0 0 0 1 0 0 0 0 1 0 0 0 0 1 0 0 0 1 0"/>
</filter>
<mask id="mask0">
  <g filter="url(#alpha)">
<rect x="0" y="0" width="48" height="48" style="fill:rgb(0%,0%,0%);fill-opacity:0.976471;stroke:none;"/>
  </g>
</mask>
<clipPath id="clip1">
  <rect x="0" y="0" width="48" height="48"/>
</clipPath>
<g id="surface5" clip-path="url(#clip1)">
<path style=" stroke:none;fill-rule:evenodd;fill:rgb(0.784314%,0.392157%,0.392157%);fill-opacity:1;" d="M 2.671875 -0.046875 C 5.890625 -0.046875 9.109375 -0.046875 12.328125 -0.046875 C 12.523438 0.128906 12.648438 0.347656 12.703125 0.609375 C 12.644531 0.933594 12.457031 1.167969 12.140625 1.3125 C 9.078125 1.34375 6.015625 1.375 2.953125 1.40625 C 2.1875 1.671875 1.671875 2.1875 1.40625 2.953125 C 1.34375 6.390625 1.34375 9.828125 1.40625 13.265625 C 1.632812 14.023438 2.117188 14.539062 2.859375 14.8125 C 16.421875 14.859375 29.984375 14.875 43.546875 14.859375 C 44.835938 15.113281 45.789062 14.675781 46.40625 13.546875 C 46.515625 11.738281 46.5625 9.929688 46.546875 8.109375 C 46.5625 6.292969 46.515625 4.480469 46.40625 2.671875 C 45.769531 1.578125 44.816406 1.140625 43.546875 1.359375 C 34.015625 1.375 24.484375 1.359375 14.953125 1.3125 C 14.691406 1.152344 14.535156 0.917969 14.484375 0.609375 C 14.492188 0.3125 14.617188 0.09375 14.859375 -0.046875 C 24.984375 -0.046875 35.109375 -0.046875 45.234375 -0.046875 C 46.609375 0.390625 47.515625 1.296875 47.953125 2.671875 C 47.953125 6.328125 47.953125 9.984375 47.953125 13.640625 C 47.4375 15.167969 46.375 16.058594 44.765625 16.3125 C 38.671875 16.359375 32.578125 16.375 26.484375 16.359375 C 26.484375 19.984375 26.484375 23.609375 26.484375 27.234375 C 27.707031 27.082031 28.863281 27.285156 29.953125 27.84375 C 32.152344 29.949219 34.324219 32.089844 36.46875 34.265625 C 36.925781 33.730469 37.503906 33.402344 38.203125 33.28125 C 41.328125 33.21875 44.453125 33.21875 47.578125 33.28125 C 47.722656 33.378906 47.847656 33.488281 47.953125 33.609375 C 47.953125 33.828125 47.953125 34.046875 47.953125 34.265625 C 47.789062 34.429688 47.601562 34.554688 47.390625 34.640625 C 44.390625 34.625 41.390625 34.640625 38.390625 34.6875 C 37.808594 34.894531 37.417969 35.285156 37.21875 35.859375 C 37.15625 39.046875 37.15625 42.234375 37.21875 45.421875 C 37.390625 45.96875 37.75 46.328125 38.296875 46.5 C 40.578125 46.546875 42.859375 46.5625 45.140625 46.546875 C 45.921875 46.53125 46.703125 46.546875 47.484375 46.59375 C 47.65625 46.6875 47.8125 46.796875 47.953125 46.921875 C 47.953125 47.171875 47.953125 47.421875 47.953125 47.671875 C 47.828125 47.734375 47.734375 47.828125 47.671875 47.953125 C 44.453125 47.953125 41.234375 47.953125 38.015625 47.953125 C 37.265625 47.71875 36.65625 47.28125 36.1875 46.640625 C 35.9375 46.785156 35.671875 46.894531 35.390625 46.96875 C 28.859375 47.03125 22.328125 47.03125 15.796875 46.96875 C 14.023438 46.441406 13.351562 45.269531 13.78125 43.453125 C 13.914062 43.09375 14.117188 42.78125 14.390625 42.515625 C 13.394531 41.253906 13.394531 39.988281 14.390625 38.71875 C 13.394531 37.472656 13.394531 36.222656 14.390625 34.96875 C 13.484375 33.851562 13.40625 32.679688 14.15625 31.453125 C 14.660156 30.863281 15.300781 30.535156 16.078125 30.46875 C 17.328125 30.421875 18.578125 30.40625 19.828125 30.421875 C 20.007812 29.375 20.523438 28.53125 21.375 27.890625 C 21.40625 26.609375 21.4375 25.328125 21.46875 24.046875 C 21.578125 23.765625 21.78125 23.609375 22.078125 23.578125 C 22.386719 23.628906 22.621094 23.785156 22.78125 24.046875 C 22.796875 25.140625 22.84375 26.234375 22.921875 27.328125 C 23.605469 27.238281 24.292969 27.207031 24.984375 27.234375 C 25.078125 23.59375 25.109375 19.9375 25.078125 16.265625 C 24.328125 16.265625 23.578125 16.265625 22.828125 16.265625 C 22.828125 17.890625 22.828125 19.515625 22.828125 21.140625 C 22.738281 21.53125 22.488281 21.75 22.078125 21.796875 C 21.824219 21.757812 21.621094 21.632812 21.46875 21.421875 C 21.421875 19.734375 21.40625 18.046875 21.421875 16.359375 C 15.328125 16.375 9.234375 16.359375 3.140625 16.3125 C 1.53125 16.058594 0.46875 15.167969 -0.046875 13.640625 C -0.046875 9.984375 -0.046875 6.328125 -0.046875 2.671875 C 0.390625 1.296875 1.296875 0.390625 2.671875 -0.046875 Z M 2.671875 -0.046875 "/>
</g>
<mask id="mask1">
  <g filter="url(#alpha)">
<rect x="0" y="0" width="48" height="48" style="fill:rgb(0%,0%,0%);fill-opacity:0.992157;stroke:none;"/>
  </g>
</mask>
<clipPath id="clip2">
  <rect x="0" y="0" width="48" height="48"/>
</clipPath>
<g id="surface8" clip-path="url(#clip2)">
<path style=" stroke:none;fill-rule:evenodd;fill:rgb(90.588236%,95.294118%,99.215686%);fill-opacity:1;" d="M 24.984375 27.234375 C 24.292969 27.207031 23.605469 27.238281 22.921875 27.328125 C 22.84375 26.234375 22.796875 25.140625 22.78125 24.046875 C 22.621094 23.785156 22.386719 23.628906 22.078125 23.578125 C 22.078125 22.984375 22.078125 22.390625 22.078125 21.796875 C 22.488281 21.75 22.738281 21.53125 22.828125 21.140625 C 22.921875 19.5625 22.953125 17.96875 22.921875 16.359375 C 23.609375 16.359375 24.296875 16.359375 24.984375 16.359375 C 24.984375 19.984375 24.984375 23.609375 24.984375 27.234375 Z M 24.984375 27.234375 "/>
</g>
</defs>
<g id="surface1">
<use xlink:href="#surface5" mask="url(#mask0)"/>
<path style=" stroke:none;fill-rule:evenodd;fill:rgb(95.294118%,53.725493%,58.823532%);fill-opacity:1;" d="M 12.703125 0.609375 C 13.296875 0.609375 13.890625 0.609375 14.484375 0.609375 C 14.535156 0.917969 14.691406 1.152344 14.953125 1.3125 C 24.484375 1.359375 34.015625 1.375 43.546875 1.359375 C 43.90625 1.734375 44.171875 2.171875 44.34375 2.671875 C 44.363281 3.460938 44.410156 4.242188 44.484375 5.015625 C 43.859375 5 43.234375 5.015625 42.609375 5.0625 C 42.515625 5.140625 42.421875 5.21875 42.328125 5.296875 C 42.21875 7.167969 42.203125 9.042969 42.28125 10.921875 C 42.394531 11.066406 42.535156 11.175781 42.703125 11.25 C 43.265625 11.296875 43.828125 11.3125 44.390625 11.296875 C 44.40625 11.984375 44.390625 12.671875 44.34375 13.359375 C 44.25 13.957031 43.984375 14.457031 43.546875 14.859375 C 29.984375 14.875 16.421875 14.859375 2.859375 14.8125 C 2.117188 14.539062 1.632812 14.023438 1.40625 13.265625 C 1.34375 9.828125 1.34375 6.390625 1.40625 2.953125 C 1.671875 2.1875 2.1875 1.671875 2.953125 1.40625 C 6.015625 1.375 9.078125 1.34375 12.140625 1.3125 C 12.457031 1.167969 12.644531 0.933594 12.703125 0.609375 Z M 12.703125 0.609375 "/>
<path style=" stroke:none;fill-rule:evenodd;fill:rgb(93.333334%,44.705883%,50.588238%);fill-opacity:1;" d="M 43.546875 1.359375 C 44.816406 1.140625 45.769531 1.578125 46.40625 2.671875 C 46.515625 4.480469 46.5625 6.292969 46.546875 8.109375 C 46.5625 9.929688 46.515625 11.738281 46.40625 13.546875 C 45.789062 14.675781 44.835938 15.113281 43.546875 14.859375 C 43.984375 14.457031 44.25 13.957031 44.34375 13.359375 C 44.390625 12.671875 44.40625 11.984375 44.390625 11.296875 C 45.378906 11.417969 45.738281 11.011719 45.46875 10.078125 C 45.34375 9.976562 45.203125 9.914062 45.046875 9.890625 C 44.597656 9.796875 44.128906 9.765625 43.640625 9.796875 C 43.640625 9.484375 43.640625 9.171875 43.640625 8.859375 C 44.078125 8.875 44.515625 8.859375 44.953125 8.8125 C 45.550781 8.515625 45.644531 8.109375 45.234375 7.59375 C 45.117188 7.519531 44.992188 7.472656 44.859375 7.453125 C 44.757812 7.367188 44.632812 7.335938 44.484375 7.359375 C 44.484375 7.046875 44.484375 6.734375 44.484375 6.421875 C 45.300781 6.527344 45.660156 6.183594 45.5625 5.390625 C 45.277344 5.066406 44.917969 4.941406 44.484375 5.015625 C 44.410156 4.242188 44.363281 3.460938 44.34375 2.671875 C 44.171875 2.171875 43.90625 1.734375 43.546875 1.359375 Z M 43.546875 1.359375 "/>
<path style=" stroke:none;fill-rule:evenodd;fill:rgb(2.352941%,1.176471%,1.176471%);fill-opacity:1;" d="M 3.890625 5.015625 C 4.765625 4.902344 5.578125 5.074219 6.328125 5.53125 C 6.847656 6.015625 6.816406 6.453125 6.234375 6.84375 C 5.875 6.914062 5.5625 6.820312 5.296875 6.5625 C 4.894531 6.40625 4.488281 6.390625 4.078125 6.515625 C 3.953125 6.671875 3.953125 6.828125 4.078125 6.984375 C 4.890625 7.273438 5.65625 7.648438 6.375 8.109375 C 7.222656 9.664062 6.800781 10.710938 5.109375 11.25 C 3.992188 11.386719 3.070312 11.027344 2.34375 10.171875 C 2.21875 9.453125 2.515625 9.125 3.234375 9.1875 C 3.621094 9.558594 4.074219 9.792969 4.59375 9.890625 C 5.007812 9.878906 5.304688 9.691406 5.484375 9.328125 C 5.40625 9.203125 5.3125 9.09375 5.203125 9 C 4.617188 8.730469 4.023438 8.480469 3.421875 8.25 C 2.679688 7.777344 2.414062 7.105469 2.625 6.234375 C 2.882812 5.648438 3.304688 5.242188 3.890625 5.015625 Z M 3.890625 5.015625 "/>
<path style=" stroke:none;fill-rule:evenodd;fill:rgb(2.352941%,1.176471%,1.176471%);fill-opacity:1;" d="M 8.015625 5.015625 C 8.238281 5 8.457031 5.015625 8.671875 5.0625 C 8.84375 5.109375 8.953125 5.21875 9 5.390625 C 9.03125 6.703125 9.0625 8.015625 9.09375 9.328125 C 9.722656 10.066406 10.347656 10.066406 10.96875 9.328125 C 11 8.046875 11.03125 6.765625 11.0625 5.484375 C 11.363281 4.976562 11.769531 4.882812 12.28125 5.203125 C 12.433594 6.632812 12.464844 8.070312 12.375 9.515625 C 12.078125 10.515625 11.40625 11.09375 10.359375 11.25 C 8.984375 11.339844 8.09375 10.730469 7.6875 9.421875 C 7.625 8.078125 7.625 6.734375 7.6875 5.390625 C 7.816406 5.277344 7.925781 5.152344 8.015625 5.015625 Z M 8.015625 5.015625 "/>
<path style=" stroke:none;fill-rule:evenodd;fill:rgb(1.960784%,0.784314%,0.784314%);fill-opacity:1;" d="M 13.734375 5.015625 C 14.515625 5 15.296875 5.015625 16.078125 5.0625 C 17.226562 5.613281 17.570312 6.488281 17.109375 7.6875 C 17.851562 8.496094 17.960938 9.386719 17.4375 10.359375 C 16.796875 11.121094 15.96875 11.433594 14.953125 11.296875 C 14.578125 11.28125 14.203125 11.265625 13.828125 11.25 C 13.71875 11.140625 13.609375 11.03125 13.5 10.921875 C 13.347656 9.085938 13.316406 7.242188 13.40625 5.390625 C 13.535156 5.277344 13.644531 5.152344 13.734375 5.015625 Z M 13.734375 5.015625 "/>
<path style=" stroke:none;fill-rule:evenodd;fill:rgb(2.352941%,1.176471%,1.176471%);fill-opacity:1;" d="M 20.015625 5.015625 C 21.082031 4.855469 22.003906 5.136719 22.78125 5.859375 C 22.90625 6.578125 22.609375 6.90625 21.890625 6.84375 C 21.351562 6.398438 20.773438 6.320312 20.15625 6.609375 C 20.082031 6.746094 20.097656 6.871094 20.203125 6.984375 C 20.945312 7.261719 21.664062 7.589844 22.359375 7.96875 C 23.273438 8.992188 23.210938 9.960938 22.171875 10.875 C 20.71875 11.59375 19.484375 11.328125 18.46875 10.078125 C 18.390625 9.40625 18.6875 9.109375 19.359375 9.1875 C 19.742188 9.558594 20.195312 9.792969 20.71875 9.890625 C 21.136719 9.910156 21.433594 9.738281 21.609375 9.375 C 21.554688 9.164062 21.429688 9.007812 21.234375 8.90625 C 20.542969 8.695312 19.886719 8.414062 19.265625 8.0625 C 18.652344 7.410156 18.542969 6.675781 18.9375 5.859375 C 19.234375 5.484375 19.59375 5.203125 20.015625 5.015625 Z M 20.015625 5.015625 "/>
<path style=" stroke:none;fill-rule:evenodd;fill:rgb(2.352941%,1.176471%,1.176471%);fill-opacity:1;" d="M 26.015625 5.015625 C 26.980469 4.898438 27.886719 5.070312 28.734375 5.53125 C 29.144531 6.011719 29.082031 6.417969 28.546875 6.75 C 28.359375 6.8125 28.171875 6.8125 27.984375 6.75 C 27.207031 6.3125 26.425781 6.3125 25.640625 6.75 C 24.90625 7.460938 24.796875 8.257812 25.3125 9.140625 C 25.789062 9.726562 26.398438 9.960938 27.140625 9.84375 C 27.621094 9.628906 28.089844 9.394531 28.546875 9.140625 C 29.117188 9.382812 29.257812 9.789062 28.96875 10.359375 C 27.277344 11.695312 25.683594 11.570312 24.1875 9.984375 C 23.027344 7.664062 23.636719 6.007812 26.015625 5.015625 Z M 26.015625 5.015625 "/>
<path style=" stroke:none;fill-rule:evenodd;fill:rgb(2.352941%,1.176471%,1.176471%);fill-opacity:1;" d="M 31.453125 9.609375 C 31.425781 9.535156 31.378906 9.472656 31.3125 9.421875 C 31.265625 9.859375 31.25 10.296875 31.265625 10.734375 C 30.816406 11.476562 30.363281 11.476562 29.90625 10.734375 C 29.84375 8.984375 29.84375 7.234375 29.90625 5.484375 C 29.980469 5.316406 30.089844 5.175781 30.234375 5.0625 C 30.984375 5 31.734375 5 32.484375 5.0625 C 33.910156 5.683594 34.269531 6.699219 33.5625 8.109375 C 33.304688 8.414062 33.007812 8.664062 32.671875 8.859375 C 33.078125 9.28125 33.46875 9.71875 33.84375 10.171875 C 34.050781 10.777344 33.847656 11.152344 33.234375 11.296875 C 33.097656 11.277344 32.972656 11.230469 32.859375 11.15625 C 32.398438 10.625 31.929688 10.109375 31.453125 9.609375 Z M 31.453125 9.609375 "/>
<path style=" stroke:none;fill-rule:evenodd;fill:rgb(2.352941%,1.176471%,1.176471%);fill-opacity:1;" d="M 35.109375 5.015625 C 35.332031 5 35.550781 5.015625 35.765625 5.0625 C 35.9375 5.109375 36.046875 5.21875 36.09375 5.390625 C 36.15625 7.203125 36.15625 9.015625 36.09375 10.828125 C 35.609375 11.476562 35.171875 11.445312 34.78125 10.734375 C 34.71875 8.953125 34.71875 7.171875 34.78125 5.390625 C 34.910156 5.277344 35.019531 5.152344 35.109375 5.015625 Z M 35.109375 5.015625 "/>
<path style=" stroke:none;fill-rule:evenodd;fill:rgb(1.960784%,0.784314%,0.784314%);fill-opacity:1;" d="M 37.453125 5.015625 C 38.203125 5 38.953125 5.015625 39.703125 5.0625 C 40.902344 5.554688 41.277344 6.414062 40.828125 7.640625 C 41.742188 8.777344 41.679688 9.855469 40.640625 10.875 C 40.453125 10.96875 40.265625 11.0625 40.078125 11.15625 C 39.242188 11.304688 38.398438 11.335938 37.546875 11.25 C 37.34375 11.171875 37.203125 11.03125 37.125 10.828125 C 37.0625 9.015625 37.0625 7.203125 37.125 5.390625 C 37.191406 5.21875 37.300781 5.09375 37.453125 5.015625 Z M 37.453125 5.015625 "/>
<path style=" stroke:none;fill-rule:evenodd;fill:rgb(1.176471%,0.392157%,0.392157%);fill-opacity:1;" d="M 44.484375 5.015625 C 44.917969 4.941406 45.277344 5.066406 45.5625 5.390625 C 45.660156 6.183594 45.300781 6.527344 44.484375 6.421875 C 44.171875 6.421875 43.859375 6.421875 43.546875 6.421875 C 43.546875 6.765625 43.546875 7.109375 43.546875 7.453125 C 43.984375 7.453125 44.421875 7.453125 44.859375 7.453125 C 44.992188 7.472656 45.117188 7.519531 45.234375 7.59375 C 45.644531 8.109375 45.550781 8.515625 44.953125 8.8125 C 44.515625 8.859375 44.078125 8.875 43.640625 8.859375 C 43.546875 9.183594 43.515625 9.527344 43.546875 9.890625 C 44.046875 9.890625 44.546875 9.890625 45.046875 9.890625 C 45.203125 9.914062 45.34375 9.976562 45.46875 10.078125 C 45.738281 11.011719 45.378906 11.417969 44.390625 11.296875 C 43.828125 11.3125 43.265625 11.296875 42.703125 11.25 C 42.535156 11.175781 42.394531 11.066406 42.28125 10.921875 C 42.203125 9.042969 42.21875 7.167969 42.328125 5.296875 C 42.421875 5.21875 42.515625 5.140625 42.609375 5.0625 C 43.234375 5.015625 43.859375 5 44.484375 5.015625 Z M 44.484375 5.015625 "/>
<path style=" stroke:none;fill-rule:evenodd;fill:rgb(60.392159%,33.725491%,37.254903%);fill-opacity:1;" d="M 15.609375 6.421875 C 15.359375 6.421875 15.109375 6.421875 14.859375 6.421875 C 14.859375 6.671875 14.859375 6.921875 14.859375 7.171875 C 15.109375 7.171875 15.359375 7.171875 15.609375 7.171875 C 15.347656 7.261719 15.066406 7.292969 14.765625 7.265625 C 14.765625 6.953125 14.765625 6.640625 14.765625 6.328125 C 15.066406 6.300781 15.347656 6.332031 15.609375 6.421875 Z M 15.609375 6.421875 "/>
<path style=" stroke:none;fill-rule:evenodd;fill:rgb(94.509804%,52.941179%,58.039218%);fill-opacity:1;" d="M 15.609375 6.421875 C 15.832031 6.4375 15.925781 6.5625 15.890625 6.796875 C 15.925781 7.03125 15.832031 7.15625 15.609375 7.171875 C 15.359375 7.171875 15.109375 7.171875 14.859375 7.171875 C 14.859375 6.921875 14.859375 6.671875 14.859375 6.421875 C 15.109375 6.421875 15.359375 6.421875 15.609375 6.421875 Z M 15.609375 6.421875 "/>
<path style=" stroke:none;fill-rule:evenodd;fill:rgb(93.333334%,52.549022%,57.647061%);fill-opacity:1;" d="M 32.109375 6.421875 C 32.734375 6.769531 32.734375 7.113281 32.109375 7.453125 C 31.859375 7.453125 31.609375 7.453125 31.359375 7.453125 C 31.359375 7.109375 31.359375 6.765625 31.359375 6.421875 C 31.609375 6.421875 31.859375 6.421875 32.109375 6.421875 Z M 32.109375 6.421875 "/>
<path style=" stroke:none;fill-rule:evenodd;fill:rgb(87.450981%,49.411765%,54.11765%);fill-opacity:1;" d="M 38.484375 6.328125 C 38.765625 6.3125 39.046875 6.328125 39.328125 6.375 C 39.703125 6.65625 39.703125 6.9375 39.328125 7.21875 C 39.046875 7.265625 38.765625 7.28125 38.484375 7.265625 C 38.484375 6.953125 38.484375 6.640625 38.484375 6.328125 Z M 38.484375 6.328125 "/>
<path style=" stroke:none;fill-rule:evenodd;fill:rgb(91.37255%,50.980395%,55.686277%);fill-opacity:1;" d="M 44.484375 6.421875 C 44.484375 6.734375 44.484375 7.046875 44.484375 7.359375 C 44.632812 7.335938 44.757812 7.367188 44.859375 7.453125 C 44.421875 7.453125 43.984375 7.453125 43.546875 7.453125 C 43.546875 7.109375 43.546875 6.765625 43.546875 6.421875 C 43.859375 6.421875 44.171875 6.421875 44.484375 6.421875 Z M 44.484375 6.421875 "/>
<path style=" stroke:none;fill-rule:evenodd;fill:rgb(54.11765%,30.588236%,33.333334%);fill-opacity:1;" d="M 32.109375 6.421875 C 31.859375 6.421875 31.609375 6.421875 31.359375 6.421875 C 31.359375 6.765625 31.359375 7.109375 31.359375 7.453125 C 31.609375 7.453125 31.859375 7.453125 32.109375 7.453125 C 31.847656 7.542969 31.566406 7.574219 31.265625 7.546875 C 31.265625 7.140625 31.265625 6.734375 31.265625 6.328125 C 31.566406 6.300781 31.847656 6.332031 32.109375 6.421875 Z M 32.109375 6.421875 "/>
<path style=" stroke:none;fill-rule:evenodd;fill:rgb(61.56863%,34.509805%,38.039216%);fill-opacity:1;" d="M 15.890625 8.671875 C 15.546875 8.671875 15.203125 8.671875 14.859375 8.671875 C 14.859375 9.046875 14.859375 9.421875 14.859375 9.796875 C 15.234375 9.796875 15.609375 9.796875 15.984375 9.796875 C 15.597656 9.890625 15.191406 9.921875 14.765625 9.890625 C 14.765625 9.453125 14.765625 9.015625 14.765625 8.578125 C 15.160156 8.546875 15.535156 8.578125 15.890625 8.671875 Z M 15.890625 8.671875 "/>
<path style=" stroke:none;fill-rule:evenodd;fill:rgb(95.294118%,53.333336%,58.431375%);fill-opacity:1;" d="M 15.890625 8.671875 C 16.320312 8.796875 16.460938 9.078125 16.3125 9.515625 C 16.214844 9.628906 16.105469 9.722656 15.984375 9.796875 C 15.609375 9.796875 15.234375 9.796875 14.859375 9.796875 C 14.859375 9.421875 14.859375 9.046875 14.859375 8.671875 C 15.203125 8.671875 15.546875 8.671875 15.890625 8.671875 Z M 15.890625 8.671875 "/>
<path style=" stroke:none;fill-rule:evenodd;fill:rgb(92.156863%,51.764709%,56.862748%);fill-opacity:1;" d="M 38.484375 8.671875 C 38.921875 8.65625 39.359375 8.671875 39.796875 8.71875 C 40.199219 9.167969 40.136719 9.542969 39.609375 9.84375 C 39.234375 9.890625 38.859375 9.90625 38.484375 9.890625 C 38.484375 9.484375 38.484375 9.078125 38.484375 8.671875 Z M 38.484375 8.671875 "/>
<path style=" stroke:none;fill-rule:evenodd;fill:rgb(62.352943%,35.294119%,38.431373%);fill-opacity:1;" d="M 31.453125 9.609375 C 31.390625 9.984375 31.328125 10.359375 31.265625 10.734375 C 31.25 10.296875 31.265625 9.859375 31.3125 9.421875 C 31.378906 9.472656 31.425781 9.535156 31.453125 9.609375 Z M 31.453125 9.609375 "/>
<path style=" stroke:none;fill-rule:evenodd;fill:rgb(63.529414%,34.509805%,38.039216%);fill-opacity:1;" d="M 43.640625 8.859375 C 43.640625 9.171875 43.640625 9.484375 43.640625 9.796875 C 44.128906 9.765625 44.597656 9.796875 45.046875 9.890625 C 44.546875 9.890625 44.046875 9.890625 43.546875 9.890625 C 43.515625 9.527344 43.546875 9.183594 43.640625 8.859375 Z M 43.640625 8.859375 "/>
<use xlink:href="#surface8" mask="url(#mask1)"/>
<path style=" stroke:none;fill-rule:evenodd;fill:rgb(62.7451%,65.882355%,68.627453%);fill-opacity:1;" d="M 24.984375 27.234375 C 24.984375 23.609375 24.984375 19.984375 24.984375 16.359375 C 24.296875 16.359375 23.609375 16.359375 22.921875 16.359375 C 22.953125 17.96875 22.921875 19.5625 22.828125 21.140625 C 22.828125 19.515625 22.828125 17.890625 22.828125 16.265625 C 23.578125 16.265625 24.328125 16.265625 25.078125 16.265625 C 25.109375 19.9375 25.078125 23.59375 24.984375 27.234375 Z M 24.984375 27.234375 "/>
<path style=" stroke:none;fill-rule:evenodd;fill:rgb(99.607843%,80.392158%,74.509805%);fill-opacity:1;" d="M 24.609375 38.671875 C 25.625 38.578125 26.296875 38.046875 26.625 37.078125 C 26.6875 35.734375 26.6875 34.390625 26.625 33.046875 C 26.304688 32.488281 25.820312 32.238281 25.171875 32.296875 C 24.789062 32.222656 24.492188 32.347656 24.28125 32.671875 C 24.25 34.046875 24.21875 35.421875 24.1875 36.796875 C 23.972656 37.417969 23.550781 37.808594 22.921875 37.96875 C 22.367188 38.042969 21.820312 38.027344 21.28125 37.921875 C 21.21875 35.421875 21.21875 32.921875 21.28125 30.421875 C 21.617188 29.554688 22.226562 28.976562 23.109375 28.6875 C 24.734375 28.625 26.359375 28.625 27.984375 28.6875 C 28.507812 28.746094 28.976562 28.933594 29.390625 29.25 C 31.375 31.234375 33.359375 33.21875 35.34375 35.203125 C 35.4375 35.390625 35.53125 35.578125 35.625 35.765625 C 35.777344 38.824219 35.808594 41.886719 35.71875 44.953125 C 35.644531 45.183594 35.503906 45.355469 35.296875 45.46875 C 31.734375 45.546875 28.171875 45.53125 24.609375 45.421875 C 25.003906 44.316406 24.816406 43.332031 24.046875 42.46875 C 24.761719 41.75 24.996094 40.890625 24.75 39.890625 C 24.652344 39.535156 24.480469 39.222656 24.234375 38.953125 C 24.359375 38.855469 24.484375 38.761719 24.609375 38.671875 Z M 24.609375 38.671875 "/>
<path style=" stroke:none;fill-rule:evenodd;fill:rgb(99.215686%,79.607844%,73.725492%);fill-opacity:1;" d="M 19.734375 31.921875 C 19.734375 32.484375 19.734375 33.046875 19.734375 33.609375 C 18.234375 33.609375 16.734375 33.609375 15.234375 33.609375 C 14.925781 32.863281 15.144531 32.316406 15.890625 31.96875 C 17.171875 31.921875 18.453125 31.90625 19.734375 31.921875 Z M 19.734375 31.921875 "/>
<path style=" stroke:none;fill-rule:evenodd;fill:rgb(99.215686%,68.627453%,61.56863%);fill-opacity:1;" d="M 25.171875 32.296875 C 25.820312 32.238281 26.304688 32.488281 26.625 33.046875 C 26.6875 34.390625 26.6875 35.734375 26.625 37.078125 C 26.296875 38.046875 25.625 38.578125 24.609375 38.671875 C 25.140625 38.160156 25.46875 37.535156 25.59375 36.796875 C 25.65625 35.453125 25.65625 34.109375 25.59375 32.765625 C 25.496094 32.5625 25.355469 32.40625 25.171875 32.296875 Z M 25.171875 32.296875 "/>
<path style=" stroke:none;fill-rule:evenodd;fill:rgb(96.078432%,66.666669%,60.000002%);fill-opacity:1;" d="M 19.734375 31.921875 C 19.828125 32.6875 19.859375 33.46875 19.828125 34.265625 C 18.515625 34.28125 17.203125 34.265625 15.890625 34.21875 C 15.585938 34.097656 15.367188 33.894531 15.234375 33.609375 C 16.734375 33.609375 18.234375 33.609375 19.734375 33.609375 C 19.734375 33.046875 19.734375 32.484375 19.734375 31.921875 Z M 19.734375 31.921875 "/>
<path style=" stroke:none;fill-rule:evenodd;fill:rgb(93.725491%,44.313726%,50.196081%);fill-opacity:1;" d="M 47.953125 34.265625 C 47.953125 38.484375 47.953125 42.703125 47.953125 46.921875 C 47.8125 46.796875 47.65625 46.6875 47.484375 46.59375 C 46.703125 46.546875 45.921875 46.53125 45.140625 46.546875 C 45.140625 42.609375 45.140625 38.671875 45.140625 34.734375 C 45.90625 34.765625 46.65625 34.734375 47.390625 34.640625 C 47.601562 34.554688 47.789062 34.429688 47.953125 34.265625 Z M 47.953125 34.265625 "/>
<path style=" stroke:none;fill-rule:evenodd;fill:rgb(95.294118%,53.725493%,58.823532%);fill-opacity:1;" d="M 47.390625 34.640625 C 46.65625 34.734375 45.90625 34.765625 45.140625 34.734375 C 45.140625 38.671875 45.140625 42.609375 45.140625 46.546875 C 42.859375 46.5625 40.578125 46.546875 38.296875 46.5 C 37.75 46.328125 37.390625 45.96875 37.21875 45.421875 C 37.15625 42.234375 37.15625 39.046875 37.21875 35.859375 C 37.417969 35.285156 37.808594 34.894531 38.390625 34.6875 C 41.390625 34.640625 44.390625 34.625 47.390625 34.640625 Z M 47.390625 34.640625 "/>
<path style=" stroke:none;fill-rule:evenodd;fill:rgb(99.215686%,79.607844%,73.725492%);fill-opacity:1;" d="M 19.734375 35.671875 C 19.628906 36.425781 19.222656 36.941406 18.515625 37.21875 C 17.429688 37.351562 16.332031 37.398438 15.234375 37.359375 C 14.925781 36.621094 15.144531 36.074219 15.890625 35.71875 C 17.171875 35.671875 18.453125 35.65625 19.734375 35.671875 Z M 19.734375 35.671875 "/>
<path style=" stroke:none;fill-rule:evenodd;fill:rgb(96.862745%,67.058825%,60.000002%);fill-opacity:1;" d="M 19.734375 35.671875 C 19.828125 36.4375 19.859375 37.21875 19.828125 38.015625 C 18.515625 38.03125 17.203125 38.015625 15.890625 37.96875 C 15.5625 37.875 15.34375 37.671875 15.234375 37.359375 C 16.332031 37.398438 17.429688 37.351562 18.515625 37.21875 C 19.222656 36.941406 19.628906 36.425781 19.734375 35.671875 Z M 19.734375 35.671875 "/>
<path style=" stroke:none;fill-rule:evenodd;fill:rgb(98.823529%,79.607844%,73.725492%);fill-opacity:1;" d="M 21.328125 39.421875 C 21.175781 40.238281 20.707031 40.785156 19.921875 41.0625 C 18.359375 41.109375 16.796875 41.125 15.234375 41.109375 C 14.945312 40.367188 15.164062 39.820312 15.890625 39.46875 C 17.703125 39.421875 19.515625 39.40625 21.328125 39.421875 Z M 21.328125 39.421875 "/>
<path style=" stroke:none;fill-rule:evenodd;fill:rgb(98.823529%,68.235296%,61.176473%);fill-opacity:1;" d="M 21.328125 39.421875 C 21.734375 39.40625 22.140625 39.421875 22.546875 39.46875 C 23.347656 39.742188 23.613281 40.289062 23.34375 41.109375 C 23.195312 41.410156 22.960938 41.613281 22.640625 41.71875 C 20.359375 41.78125 18.078125 41.78125 15.796875 41.71875 C 15.523438 41.585938 15.335938 41.382812 15.234375 41.109375 C 16.796875 41.125 18.359375 41.109375 19.921875 41.0625 C 20.707031 40.785156 21.175781 40.238281 21.328125 39.421875 Z M 21.328125 39.421875 "/>
<path style=" stroke:none;fill-rule:evenodd;fill:rgb(99.607843%,80.392158%,74.509805%);fill-opacity:1;" d="M 15.984375 43.265625 C 17.765625 43.234375 19.546875 43.265625 21.328125 43.359375 C 21.128906 44.105469 20.660156 44.589844 19.921875 44.8125 C 18.359375 44.859375 16.796875 44.875 15.234375 44.859375 C 14.949219 44.082031 15.199219 43.550781 15.984375 43.265625 Z M 15.984375 43.265625 "/>
<path style=" stroke:none;fill-rule:evenodd;fill:rgb(97.647059%,67.843139%,60.784316%);fill-opacity:1;" d="M 15.984375 43.265625 C 18.15625 43.15625 20.34375 43.140625 22.546875 43.21875 C 23.300781 43.523438 23.566406 44.070312 23.34375 44.859375 C 23.203125 45.125 23 45.328125 22.734375 45.46875 C 20.421875 45.53125 18.109375 45.53125 15.796875 45.46875 C 15.523438 45.335938 15.335938 45.132812 15.234375 44.859375 C 16.796875 44.875 18.359375 44.859375 19.921875 44.8125 C 20.660156 44.589844 21.128906 44.105469 21.328125 43.359375 C 19.546875 43.265625 17.765625 43.234375 15.984375 43.265625 Z M 15.984375 43.265625 "/>
</g>
</svg>
