<?xml version="1.0" encoding="UTF-8" standalone="no"?>
<!-- Created with Inkscape (http://www.inkscape.org/) -->

<svg
   version="1.1"
   id="svg1049"
   width="957.33331"
   height="704"
   viewBox="0 0 957.33331 704"
   sodipodi:docname="Bearsampp-with-text-stroked.svg"
   inkscape:version="1.2.1 (9c6d41e410, 2022-07-14)"
   xmlns:inkscape="http://www.inkscape.org/namespaces/inkscape"
   xmlns:sodipodi="http://sodipodi.sourceforge.net/DTD/sodipodi-0.dtd"
   xmlns="http://www.w3.org/2000/svg"
   xmlns:svg="http://www.w3.org/2000/svg">
  <defs
     id="defs1053" />
  <sodipodi:namedview
     id="namedview1051"
     pagecolor="#ffffff"
     bordercolor="#000000"
     borderopacity="0.25"
     inkscape:showpageshadow="2"
     inkscape:pageopacity="0.0"
     inkscape:pagecheckerboard="0"
     inkscape:deskcolor="#d1d1d1"
     showgrid="true"
     inkscape:zoom="0.94163723"
     inkscape:cx="954.72011"
     inkscape:cy="437.5358"
     inkscape:window-width="4096"
     inkscape:window-height="2126"
     inkscape:window-x="-11"
     inkscape:window-y="-11"
     inkscape:window-maximized="1"
     inkscape:current-layer="g1057">
    <inkscape:page
       x="0"
       y="0"
       id="page1055"
       width="957.33331"
       height="704" />
    <inkscape:grid
       type="xygrid"
       id="grid5953" />
  </sodipodi:namedview>
  <g
     id="g1057"
     inkscape:groupmode="layer"
     inkscape:label="Page 1"
     transform="matrix(1.3333333,0,0,-1.3333333,0,704)">
    <path
       d="m 249.328,356.047 -32.887,-21.692 32.887,-21.687 v -53.871 h 37.766 v 18.492 h -19.278 v 45.332 l -17.793,11.734 17.793,11.739 v 45.332 h 19.278 v 18.492 h -37.766 v -53.871"
       style="fill:#4078c0;fill-opacity:1;fill-rule:nonzero;stroke:#ffffff;stroke-width:1.50000004;stroke-opacity:1;stroke-dasharray:none"
       id="path1063" />
    <path
       d="m 458.672,356.047 v 53.871 h -37.766 v -18.492 h 19.278 v -45.332 l 17.793,-11.739 -17.793,-11.734 v -45.332 h -19.278 v -18.492 h 37.766 v 53.871 l 32.887,21.687 -32.887,21.692"
       style="fill:#4078c0;fill-opacity:1;fill-rule:nonzero;stroke:#ffffff;stroke-width:1.50000004;stroke-dasharray:none;stroke-opacity:1"
       id="path1065" />
    <path
       d="M 55.201615,44.53018 H 24.737169 v 86.82265 h 28.872553 c 4.858746,0 8.767014,-0.16208 11.728612,-0.48174 7.174378,-0.94276 12.6854,-3.2398 16.528701,-6.8875 3.842188,-3.64409 5.764396,-8.47678 5.764396,-14.50526 0,-9.135 -4.898284,-15.296745 -14.69745,-18.487019 11.94579,-2.831808 17.920124,-9.753614 17.920124,-20.774243 0,-3.812482 -0.673993,-7.255602 -2.019752,-10.326208 -1.355875,-3.071415 -3.182395,-5.589148 -5.48522,-7.551847 -2.297813,-1.970352 -4.810298,-3.549732 -7.540889,-4.734717 -2.71834,-1.192008 -5.618682,-2.015104 -8.704646,-2.465326 -2.95046,-0.407991 -6.917386,-0.60879 -11.901983,-0.60879 z M 38.98188,84.037178 V 55.595741 h 17.611899 c 2.95872,0 5.003439,0.03872 6.137495,0.116067 3.839682,0.330643 6.97929,1.712645 9.411958,4.15366 2.425058,2.437593 3.639952,5.681264 3.639952,9.729392 0,8.399435 -4.390793,13.091651 -13.17442,14.076827 -1.73009,0.24204 -3.987994,0.365491 -6.779932,0.365491 z m 0,36.376152 V 94.740851 h 15.578411 c 2.406588,0 4.644167,0.157578 6.713944,0.477956 7.523163,1.149868 11.285626,5.391773 11.285626,12.729673 0,3.68282 -1.087651,6.52823 -3.262212,8.53621 -2.175582,2.00529 -5.144511,3.19388 -8.907995,3.56666 -2.0669,0.24313 -4.328795,0.36198 -6.779932,0.36198 z M 99.22556,77.769184 c 0,10.53421 3.13237,19.057096 9.40073,25.570916 6.26835,6.51462 14.38569,9.77153 24.35173,9.77153 6.46429,0 12.04686,-1.49834 16.75702,-4.49133 4.70551,-2.99046 8.21099,-6.97493 10.50991,-11.949167 2.298,-4.980177 3.45165,-10.667384 3.45165,-17.058828 0,-2.086151 -0.0872,-3.92855 -0.25431,-5.52963 h -49.39956 c 1.0071,-14.174616 7.0258,-21.262104 18.05081,-21.262104 4.22011,0 7.79426,1.188497 10.72708,3.56657 2.94026,2.378164 4.7677,5.635162 5.48234,9.771623 h 14.37456 c -1.43578,-7.622172 -4.99972,-13.430038 -10.69831,-17.4254 -5.70324,-3.988969 -12.52669,-5.983363 -20.45832,-5.983363 -9.62913,0 -17.42052,2.990465 -23.37713,8.965725 -5.94575,5.986964 -8.9182,14.670941 -8.9182,26.053458 z m 14.93606,6.031988 h 34.90239 c -0.50767,6.219369 -2.16434,10.98191 -4.97373,14.28465 -2.80661,3.295808 -6.68239,4.945418 -11.61994,4.945418 -4.98487,0 -9.08897,-1.63277 -12.316,-4.893012 -3.22983,-3.253216 -5.2234,-8.030074 -5.99272,-14.337056 z m 58.7214,-21.758069 c 0,15.240742 12.75036,22.863185 38.25946,22.863185 h 4.35747 v 1.660239 c 0,3.190184 -0.0835,5.624176 -0.25338,7.301613 -0.41764,6.109696 -4.42708,9.1631 -12.02273,9.1631 -8.11353,0 -12.56938,-4.284492 -13.37034,-12.845737 h -14.24462 c 0.42136,7.21445 3.17598,12.834847 8.26666,16.866137 5.07862,4.04119 11.61529,6.05999 19.60261,6.05999 8.52282,0 14.8349,-1.6109 18.93529,-4.82548 4.09296,-3.21909 6.43551,-7.81586 7.023,-13.792201 0.25709,-2.785794 0.38795,-5.943653 0.38795,-9.471595 V 61.487349 c 0,-5.121638 0.42414,-10.773638 1.26873,-16.957169 h -14.13604 l -1.25388,9.703999 -3.55651,-7.189148 c -4.30736,-2.863414 -10.00688,-4.29503 -17.09392,-4.29503 -6.38075,0 -11.67376,1.710123 -15.87253,5.12551 -4.19784,3.425921 -6.29722,8.149742 -6.29722,14.167592 z m 15.00196,1.104755 c 0,-3.44348 1.08774,-6.025864 3.26323,-7.745532 2.17457,-1.723541 5.20948,-2.581755 9.09547,-2.581755 4.55424,0 8.23697,1.474118 11.04358,4.424874 2.80939,2.947155 4.21269,7.066688 4.21269,12.349415 v 6.148325 c -2.1031,0.165681 -4.10781,0.249422 -6.01787,0.249422 -3.20847,0 -6.08004,-0.225111 -8.61099,-0.675332 -4.04563,-0.699646 -7.22534,-2.071023 -9.53447,-4.114942 -2.29892,-2.0468 -3.45164,-4.734717 -3.45164,-8.054475 z M 262.25346,44.53018 h -14.32444 v 66.79137 h 14.32444 v -11.30148 l 5.82946,9.21154 c 3.24467,2.49783 6.79098,3.75035 10.62964,3.75035 1.73371,0 3.31427,-0.24672 4.75006,-0.73926 v -10.80902 c -0.75827,0.0426 -1.47569,0.064 -2.15415,0.064 -5.7422,-0.0422 -10.25653,-1.664116 -13.54761,-4.865196 -3.71615,-3.597906 -5.55473,-9.390645 -5.5074,-17.38569 z m 25.46176,20.031375 h 14.37456 c 0.80096,-4.101614 2.50125,-7.122694 5.09718,-9.067474 2.60334,-1.948562 5.80068,-2.919331 9.60036,-2.919331 3.45813,0 6.30836,0.727739 8.5451,2.190961 2.23675,1.452236 3.35698,3.573594 3.35698,6.356148 0,2.862422 -1.24367,5.198354 -3.73101,7.006267 -2.49754,1.800889 -6.69909,3.457887 -12.61208,4.970363 -3.37924,0.823096 -6.31207,1.765051 -8.7994,2.827666 -2.49383,1.066036 -4.76399,2.374202 -6.8049,3.93206 -2.05204,1.554978 -3.61405,3.450504 -4.69437,5.680814 -1.08125,2.240216 -1.6177,4.773436 -1.6177,7.590837 0,6.194067 2.31377,11.072674 6.93947,14.635734 4.6257,3.56315 10.80041,5.34603 18.52228,5.34603 7.68568,0 13.76944,-1.89544 18.25406,-5.6837 4.47349,-3.78889 7.11303,-8.86019 7.914,-15.219939 h -14.50914 c -0.75734,3.608801 -2.20055,6.376587 -4.33241,8.304799 -2.13837,1.92047 -4.93756,2.88043 -8.39569,2.88043 -3.2558,0 -5.73943,-0.78789 -7.45086,-2.36015 -1.70401,-1.575781 -2.5523,-3.671836 -2.5523,-6.292219 0,-2.874399 1.1787,-5.107231 3.5426,-6.708311 2.36388,-1.593066 6.28979,-3.084022 11.78234,-4.476919 7.85274,-1.973955 13.6497,-4.59785 17.38349,-7.875378 3.73472,-3.278517 5.60486,-7.784252 5.60486,-13.517561 0,-6.229275 -2.50126,-11.019549 -7.50377,-14.375416 -4.99972,-3.358747 -11.44916,-5.037265 -19.34922,-5.037265 -7.97989,0 -14.50543,1.815296 -19.57754,5.437874 -5.0647,3.623208 -8.05878,9.081792 -8.98689,16.37368 z m 63.26737,-2.518452 c 0,15.240742 12.75036,22.863185 38.25852,22.863185 h 4.37232 v 1.660239 c 0,3.190184 -0.0835,5.624176 -0.25337,7.301613 -0.42043,6.109696 -4.43079,9.1631 -12.03665,9.1631 -8.10332,0 -12.55453,-4.284492 -13.36013,-12.845737 h -14.25483 c 0.42043,7.21445 3.17598,12.834847 8.26574,16.866137 5.09068,4.04119 11.62364,6.05999 19.6026,6.05999 8.53489,0 14.84603,-1.6109 18.93622,-4.82548 4.10409,-3.21909 6.44572,-7.81586 7.03692,-13.792201 0.24595,-2.785794 0.3731,-5.943653 0.3731,-9.471595 V 61.487349 c 0,-5.121638 0.42415,-10.773638 1.26872,-16.957169 h -14.12118 l -1.26872,9.703999 -3.54539,-7.189148 c -4.30735,-2.863414 -10.00594,-4.29503 -17.10506,-4.29503 -6.37332,0 -11.6589,1.710123 -15.85767,5.12551 -4.20897,3.425921 -6.31114,8.149742 -6.31114,14.167592 z m 15.01588,1.104755 c 0,-3.44348 1.08774,-6.025864 3.26323,-7.745532 2.17549,-1.723541 5.20577,-2.581755 9.09269,-2.581755 4.55702,0 8.24068,1.474118 11.04636,4.424874 2.80939,2.947155 4.21268,7.066688 4.21268,12.349415 v 6.148325 c -2.11329,0.165681 -4.11802,0.249422 -6.01786,0.249422 -3.20847,0 -6.08004,-0.225111 -8.61099,-0.675332 -4.05677,-0.699646 -7.23554,-2.071023 -9.53447,-4.114942 -2.30171,-2.0468 -3.45164,-4.734717 -3.45164,-8.054475 z M 440.3521,44.53018 h -14.30866 v 66.79137 h 14.30866 v -9.88787 l 4.62663,7.79793 c 3.37925,2.58608 8.27687,3.88002 14.69754,3.88002 5.27816,0 9.64677,-1.14627 13.10583,-3.4397 3.46556,-2.30063 5.87308,-5.39555 7.21791,-9.28997 l 6.40674,8.84965 c 3.50547,2.58608 8.38176,3.88002 14.63165,3.88002 6.12366,0 11.03244,-1.51905 14.7226,-4.55535 3.69109,-3.02801 5.96032,-6.95692 6.80582,-11.792941 0.42044,-2.828296 0.63019,-6.781517 0.63019,-11.857051 V 44.53018 h -14.2437 v 35.328035 c 0,5.086791 -0.16706,9.120512 -0.50767,12.103864 -0.41765,3.572964 -1.7365,6.288704 -3.95931,8.149741 -2.21911,1.8677 -5.18814,2.79948 -8.90429,2.79948 -9.2449,0 -13.86688,-8.255271 -13.86688,-24.76573 V 44.53018 h -14.1249 v 35.328035 c 0,4.713918 -0.1884,8.747998 -0.57265,12.103864 -1.00792,7.301704 -5.26795,10.949221 -12.78285,10.949221 -9.25603,0 -13.88266,-8.255271 -13.88266,-24.76573 z M 554.87617,19.891389 h -14.32073 v 91.430161 h 14.32073 v -10.38033 l 5.18814,7.12342 c 1.89983,1.55417 4.48462,2.78867 7.75806,3.69632 3.27066,0.90045 6.68146,1.35067 10.22777,1.35067 6.42066,0 11.99674,-1.48754 16.73103,-4.4635 4.72408,-2.96868 8.29172,-7.00276 10.69831,-12.106391 2.40752,-5.093903 3.61127,-10.897177 3.61127,-17.410992 0,-5.941133 -0.89562,-11.269963 -2.68965,-15.982889 -1.79868,-4.713916 -4.2526,-8.533422 -7.35249,-11.456355 -3.10359,-2.933827 -6.63877,-5.156124 -10.60829,-6.668601 -3.96581,-1.512746 -8.2082,-2.272901 -12.72902,-2.272901 -2.99408,0 -6.04292,0.376385 -9.14652,1.129067 -3.11102,0.763666 -5.51111,1.780179 -7.19656,3.049895 l -4.49205,6.629882 z m 0,58.746634 v -3.387201 c 0,-3.88992 0.56893,-7.340424 1.71143,-10.3516 1.13137,-3.011266 2.63955,-5.353141 4.52083,-7.03157 1.88128,-1.677438 3.9194,-2.943732 6.11253,-3.78826 2.20054,-0.839934 4.48462,-1.258821 6.8448,-1.258821 5.91299,0 10.71317,2.170251 14.40333,6.510303 3.69852,4.351668 5.55103,10.541503 5.55103,18.568875 0,7.45676 -1.70401,13.506666 -5.10831,18.149538 -3.39689,4.653493 -8.13581,6.981953 -14.21586,6.981953 -2.78433,0 -5.32921,-0.4432 -7.63834,-1.32635 -2.29893,-0.87902 -4.37603,-2.251113 -6.23226,-4.111521 -1.85993,-1.868423 -3.32077,-4.407585 -4.37232,-7.615059 -1.05155,-3.219089 -1.57686,-6.996363 -1.57686,-11.340287 z m 81.19845,-58.746634 h -14.31981 v 91.430161 h 14.31981 v -10.38033 l 5.19184,7.12342 c 1.89612,1.55417 4.48091,2.78867 7.75528,3.69632 3.26973,0.90045 6.68146,1.35067 10.23055,1.35067 6.41695,0 11.99303,-1.48754 16.72731,-4.4635 4.72408,-2.96868 8.29174,-7.00276 10.69925,-12.106391 2.40659,-5.093903 3.61035,-10.897177 3.61035,-17.410992 0,-5.941133 -0.8947,-11.269963 -2.68595,-15.982889 -1.80239,-4.713916 -4.2526,-8.533422 -7.3562,-11.456355 -3.1036,-2.933827 -6.63783,-5.156124 -10.60458,-6.668601 -3.96952,-1.512746 -8.21097,-2.272901 -12.7318,-2.272901 -2.99501,0 -6.04757,0.376385 -9.1623,1.129067 -3.09896,0.763666 -5.49534,1.780179 -7.17799,3.049895 l -4.49576,6.629882 z m 0,58.746634 v -3.387201 c 0,-3.88992 0.57264,-7.340424 1.71143,-10.3516 1.13508,-3.011266 2.63954,-5.353141 4.52081,-7.03157 1.88221,-1.677438 3.91942,-2.943732 6.11253,-3.78826 2.19313,-0.839934 4.4735,-1.258821 6.84481,-1.258821 5.91299,0 10.71317,2.170251 14.40427,6.510303 3.70129,4.351668 5.55009,10.541503 5.55009,18.568875 0,7.45676 -1.70401,13.506666 -5.10832,18.149538 -3.39687,4.653493 -8.13488,6.981953 -14.21492,6.981953 -2.79175,0 -5.33663,-0.4432 -7.63556,-1.32635 -2.30171,-0.87902 -4.37975,-2.251113 -6.23226,-4.111521 -1.86271,-1.868423 -3.32077,-4.407585 -4.37232,-7.615059 -1.05433,-3.219089 -1.58056,-6.996363 -1.58056,-11.340287 z"
       style="fill:#4078c0;fill-opacity:1;fill-rule:nonzero;stroke:#ffffff;stroke-width:1.37126;stroke-dasharray:none;stroke-opacity:1"
       id="path1067" />
    <path
       d="m 355.41,282.285 h -32.82 v 96.422 h 31.105 c 5.239,0 9.45,-0.18 12.637,-0.535 7.734,-1.047 13.672,-3.594 17.809,-7.649 4.14,-4.043 6.211,-9.414 6.211,-16.109 0,-10.144 -5.278,-16.988 -15.836,-20.531 12.875,-3.141 19.308,-10.832 19.308,-23.071 0,-4.234 -0.726,-8.058 -2.176,-11.468 -1.46,-3.41 -3.429,-6.207 -5.906,-8.387 -2.48,-2.187 -5.187,-3.941 -8.129,-5.258 -2.929,-1.324 -6.054,-2.238 -9.379,-2.738 -3.179,-0.453 -7.453,-0.676 -12.824,-0.676 z m -17.476,43.875 v -31.586 h 18.976 c 3.188,0 5.395,0.043 6.613,0.129 4.141,0.367 7.52,1.902 10.145,4.613 2.613,2.707 3.918,6.309 3.918,10.805 0,9.328 -4.731,14.539 -14.191,15.633 -1.864,0.269 -4.301,0.406 -7.305,0.406 z m 0,40.399 v -28.512 h 16.785 c 2.593,0 5.004,0.176 7.234,0.531 8.106,1.277 12.16,5.988 12.16,14.137 0,4.09 -1.172,7.25 -3.515,9.48 -2.344,2.227 -5.543,3.547 -9.598,3.961 -2.227,0.27 -4.66,0.403 -7.305,0.403 z"
       style="fill:#4078c0;fill-opacity:1;fill-rule:nonzero;stroke:#ffffff;stroke-width:1.50000004;stroke-opacity:1;stroke-dasharray:none"
       id="path1069" />
    <path
       d="m 431.81613,501.9394 c -6.04943,2.79219 -12.25892,5.29987 -18.6555,7.43619 -18.47242,6.24724 -38.23836,9.62442 -58.80163,9.62442 -20.76935,0 -40.71937,-3.45505 -59.35186,-9.8111 -6.36956,-2.16027 -12.57905,-4.66796 -18.60447,-7.51505 C 213.74848,472.34937 170.25,408.77187 170.25,335.25051 c 0,-73.60023 43.57652,-137.23263 106.33974,-166.53017 6.04943,-2.81914 12.25893,-5.32682 18.6565,-7.4871 C 313.7967,154.9281 333.69469,151.5 354.359,151.5 c 20.45822,0 40.16915,3.35023 58.56254,9.54656 6.39757,2.13632 12.63408,4.61705 18.68351,7.4362 63.08035,29.19172 106.89496,92.95688 106.89496,166.76775 0,73.732 -43.73658,137.44226 -106.68388,166.68889 z M 354.359,500.53981 c 15.24913,0 30.02407,-2.05546 44.0297,-5.93178 l -44.39685,-44.40752 -44.23678,44.24779 c 14.18971,3.98114 29.14872,6.09151 44.60393,6.09151 z m 0,-330.5796 c -15.34917,0 -30.23015,2.11036 -44.36883,6.04059 l 44.00168,44.0102 44.15875,-44.16992 c -13.95461,-3.84937 -28.6215,-5.88087 -43.7916,-5.88087 z m 63.26843,12.52543 -63.63558,63.66035 -63.42349,-63.44971 c -59.75102,24.99993 -101.82193,83.96537 -101.82193,152.55423 0,68.50999 41.96587,127.42053 101.61085,152.44742 h 0.027 l 63.60756,-63.6324 63.81865,63.87098 c 59.9621,-24.89511 102.19308,-83.96537 102.19308,-152.686 0,-68.7995 -42.33702,-127.92067 -102.37615,-152.76487"
       style="fill:#4078c0;fill-opacity:1;fill-rule:nonzero;stroke:#ffffff;stroke-width:1.50000004;stroke-opacity:1;stroke-dasharray:none"
       id="path1061" />
  </g>
</svg>
