<?xml version="1.0" encoding="UTF-8" standalone="no"?>
<!-- Created with Inkscape (http://www.inkscape.org/) -->

<svg
   version="1.1"
   id="svg1049"
   width="958.14008"
   height="692.92657"
   viewBox="0 0 958.14007 692.92657"
   sodipodi:docname="transparent with text-stroked-inkscape.svg"
   inkscape:version="1.2.1 (9c6d41e410, 2022-07-14)"
   xmlns:inkscape="http://www.inkscape.org/namespaces/inkscape"
   xmlns:sodipodi="http://sodipodi.sourceforge.net/DTD/sodipodi-0.dtd"
   xmlns="http://www.w3.org/2000/svg"
   xmlns:svg="http://www.w3.org/2000/svg">
  <defs
     id="defs1053" />
  <sodipodi:namedview
     id="namedview1051"
     pagecolor="#ffffff"
     bordercolor="#000000"
     borderopacity="0.25"
     inkscape:showpageshadow="2"
     inkscape:pageopacity="0.0"
     inkscape:pagecheckerboard="0"
     inkscape:deskcolor="#d1d1d1"
     showgrid="true"
     inkscape:zoom="0.94163723"
     inkscape:cx="1064.1041"
     inkscape:cy="437.5358"
     inkscape:window-width="3840"
     inkscape:window-height="2126"
     inkscape:window-x="-11"
     inkscape:window-y="-11"
     inkscape:window-maximized="1"
     inkscape:current-layer="g1057">
    <inkscape:grid
       type="xygrid"
       id="grid5953" />
  </sodipodi:namedview>
  <g
     id="g1057"
     inkscape:groupmode="layer"
     inkscape:label="Page 1"
     transform="matrix(1.3333333,0,0,-1.3333333,0.66145867,693)">
    <path
       d="m 249.328,356.047 -32.887,-21.692 32.887,-21.687 v -53.871 h 37.766 v 18.492 h -19.278 v 45.332 l -17.793,11.734 17.793,11.739 v 45.332 h 19.278 v 18.492 h -37.766 v -53.871"
       style="fill:#4078c0;fill-opacity:1;fill-rule:nonzero;stroke:#ffffff;stroke-width:1.5;stroke-dasharray:none;stroke-opacity:1"
       id="path1063" />
    <path
       d="m 458.672,356.047 v 53.871 h -37.766 v -18.492 h 19.278 v -45.332 l 17.793,-11.739 -17.793,-11.734 v -45.332 h -19.278 v -18.492 h 37.766 v 53.871 l 32.887,21.687 -32.887,21.692"
       style="fill:#4078c0;fill-opacity:1;fill-rule:nonzero;stroke:#ffffff;stroke-width:1.5;stroke-dasharray:none;stroke-opacity:1"
       id="path1065" />
    <path
       d="M 33.0781,28.168 H 0.253906 V 124.59 H 31.3629 c 5.2351,0 9.4461,-0.18 12.6371,-0.535 7.7301,-1.047 13.668,-3.598 17.809,-7.649 4.1398,-4.047 6.2109,-9.414 6.2109,-16.109 0,-10.145 -5.2777,-16.988 -15.8359,-20.531 12.8711,-3.1449 19.3082,-10.832 19.3082,-23.0711 0,-4.234 -0.7262,-8.0578 -2.1762,-11.4679 C 67.8551,41.816 65.8871,39.0199 63.4059,36.8402 60.9301,34.652 58.223,32.898 55.2809,31.582 52.352,30.2582 49.227,29.3441 45.902,28.8441 42.723,28.391 38.4488,28.168 33.0781,28.168 Z M 15.602,72.043 V 40.457 h 18.9761 c 3.1879,0 5.391,0.043 6.6129,0.1289 4.1371,0.3672 7.5199,1.902 10.141,4.6129 2.6129,2.7071 3.9219,6.3094 3.9219,10.8051 0,9.3281 -4.7309,14.5391 -14.1949,15.6332 -1.8641,0.2688 -4.2969,0.4059 -7.3051,0.4059 z m 0,40.398 V 83.9301 h 16.7851 c 2.593,0 5.0039,0.175 7.234,0.5308 8.1059,1.277 12.1598,5.9879 12.1598,14.1371 0,4.09 -1.1719,7.25 -3.5149,9.48 -2.3441,2.227 -5.543,3.547 -9.598,3.961 -2.227,0.27 -4.6641,0.402 -7.3051,0.402 z M 80.5121,65.082 c 0,11.6989 3.375,21.1641 10.1289,28.3981 6.7539,7.2349 15.5,10.8519 26.238,10.8519 6.965,0 12.98,-1.664 18.055,-4.9879 5.07,-3.3211 8.847,-7.7461 11.324,-13.2703 2.476,-5.5308 3.719,-11.8468 3.719,-18.9449 0,-2.3168 -0.094,-4.3629 -0.274,-6.141 H 96.477 c 1.0851,-15.7418 7.57,-23.6129 19.449,-23.6129 4.547,0 8.398,1.3199 11.558,3.9609 3.168,2.6411 5.137,6.2582 5.907,10.852 h 15.488 c -1.547,-8.4649 -5.387,-14.9149 -11.527,-19.352 -6.145,-4.43 -13.497,-6.6449 -22.043,-6.6449 -10.375,0 -18.7699,3.3211 -25.1879,9.957 -6.4063,6.6489 -9.609,16.293 -9.609,28.934 z m 16.093,6.6989 h 37.6059 c -0.547,6.907 -2.332,12.1961 -5.359,15.864 -3.024,3.6602 -7.2,5.4922 -12.52,5.4922 -5.371,0 -9.793,-1.8133 -13.27,-5.434 -3.48,-3.6129 -5.628,-8.9179 -6.4569,-15.9222 z M 159.875,47.6172 c 0,16.9258 13.738,25.391 41.223,25.391 h 4.695 v 1.8438 c 0,3.5429 -0.09,6.246 -0.273,8.1089 -0.45,6.7852 -4.77,10.1762 -12.954,10.1762 -8.742,0 -13.543,-4.7582 -14.406,-14.266 h -15.348 c 0.454,8.0121 3.422,14.2539 8.907,18.7309 5.472,4.488 12.515,6.73 21.121,6.73 9.183,0 15.984,-1.789 20.402,-5.359 4.41,-3.575 6.934,-8.68 7.567,-15.3171 0.277,-3.0938 0.418,-6.6008 0.418,-10.5188 V 47 c 0,-5.6879 0.457,-11.9648 1.367,-18.832 h -15.231 l -1.351,10.7769 -3.832,-7.984 c -4.641,-3.18 -10.782,-4.7699 -18.418,-4.7699 -6.875,0 -12.578,1.8992 -17.102,5.6922 -4.523,3.8047 -6.785,9.0508 -6.785,15.734 z m 16.164,1.2269 c 0,-3.8242 1.172,-6.6921 3.516,-8.6019 2.343,-1.9141 5.613,-2.8672 9.8,-2.8672 4.907,0 8.875,1.6371 11.899,4.9141 3.027,3.273 4.539,7.848 4.539,13.7148 v 6.8281 c -2.266,0.184 -4.426,0.277 -6.484,0.277 -3.457,0 -6.551,-0.25 -9.278,-0.75 -4.359,-0.777 -7.785,-2.3 -10.273,-4.5699 -2.477,-2.2731 -3.719,-5.2582 -3.719,-8.945 z M 256.168,28.168 h -15.434 v 74.176 h 15.434 V 89.793 l 6.281,10.23 c 3.496,2.774 7.317,4.165 11.453,4.165 1.868,0 3.571,-0.274 5.118,-0.821 V 91.3629 c -0.817,0.0473 -1.59,0.0711 -2.321,0.0711 -6.187,-0.0469 -11.051,-1.8481 -14.597,-5.4031 -4.004,-3.9957 -5.985,-10.4289 -5.934,-19.3079 z m 27.434,22.2461 h 15.488 c 0.863,-4.5551 2.695,-7.9102 5.492,-10.07 2.805,-2.164 6.25,-3.2421 10.344,-3.2421 3.726,0 6.797,0.8082 9.207,2.4332 2.41,1.6128 3.617,3.9687 3.617,7.0589 0,3.1789 -1.34,5.7731 -4.02,7.7809 -2.691,2 -7.218,3.8402 -13.589,5.5199 -3.641,0.9141 -6.801,1.9602 -9.481,3.1403 -2.687,1.1839 -5.133,2.6367 -7.332,4.3668 -2.211,1.7269 -3.894,3.832 -5.058,6.3089 -1.165,2.4879 -1.743,5.3012 -1.743,8.4301 0,6.8789 2.493,12.2969 7.477,16.2539 4.984,3.9571 11.637,5.9371 19.957,5.9371 8.281,0 14.836,-2.105 19.668,-6.3121 4.82,-4.2078 7.664,-9.8398 8.527,-16.9027 h -15.633 c -0.816,4.0078 -2.371,7.0816 -4.668,9.223 -2.304,2.1328 -5.32,3.1989 -9.046,3.1989 -3.508,0 -6.184,-0.875 -8.028,-2.6211 -1.836,-1.75 -2.75,-4.0778 -2.75,-6.9879 0,-3.1922 1.27,-5.6719 3.817,-7.45 2.547,-1.7692 6.777,-3.425 12.695,-4.9719 8.461,-2.1922 14.707,-5.1062 18.73,-8.7461 4.024,-3.641 6.039,-8.6449 6.039,-15.0121 0,-6.918 -2.695,-12.2379 -8.085,-15.9648 -5.387,-3.7301 -12.336,-5.5942 -20.848,-5.5942 -8.598,0 -15.629,2.016 -21.094,6.0391 -5.457,4.0238 -8.683,10.0859 -9.683,18.184 z m 68.168,-2.7969 c 0,16.9258 13.738,25.391 41.222,25.391 h 4.711 v 1.8438 c 0,3.5429 -0.09,6.246 -0.273,8.1089 -0.453,6.7852 -4.774,10.1762 -12.969,10.1762 -8.731,0 -13.527,-4.7582 -14.395,-14.266 h -15.359 c 0.453,8.0121 3.422,14.2539 8.906,18.7309 5.485,4.488 12.524,6.73 21.121,6.73 9.196,0 15.996,-1.789 20.403,-5.359 4.422,-3.575 6.945,-8.68 7.582,-15.3171 0.265,-3.0938 0.402,-6.6008 0.402,-10.5188 V 47 c 0,-5.6879 0.457,-11.9648 1.367,-18.832 h -15.215 l -1.367,10.7769 -3.82,-7.984 c -4.641,-3.18 -10.781,-4.7699 -18.43,-4.7699 -6.867,0 -12.562,1.8992 -17.086,5.6922 -4.535,3.8047 -6.8,9.0508 -6.8,15.734 z m 16.179,1.2269 c 0,-3.8242 1.172,-6.6921 3.516,-8.6019 2.344,-1.9141 5.609,-2.8672 9.797,-2.8672 4.91,0 8.879,1.6371 11.902,4.9141 3.027,3.273 4.539,7.848 4.539,13.7148 v 6.8281 c -2.277,0.184 -4.437,0.277 -6.484,0.277 -3.457,0 -6.551,-0.25 -9.278,-0.75 -4.371,-0.777 -7.796,-2.3 -10.273,-4.5699 -2.48,-2.2731 -3.719,-5.2582 -3.719,-8.945 z M 448.062,28.168 h -15.417 v 74.176 h 15.417 V 91.3629 l 4.985,8.6601 c 3.641,2.872 8.918,4.309 15.836,4.309 5.687,0 10.394,-1.273 14.121,-3.82 3.734,-2.555 6.328,-5.9921 7.777,-10.3171 l 6.903,9.8281 c 3.777,2.872 9.031,4.309 15.765,4.309 6.598,0 11.887,-1.687 15.863,-5.059 3.977,-3.3628 6.422,-7.7261 7.333,-13.0968 0.453,-3.141 0.679,-7.5313 0.679,-13.168 V 28.168 h -15.347 v 39.234 c 0,5.6492 -0.18,10.1289 -0.547,13.4421 -0.45,3.968 -1.871,6.984 -4.266,9.0508 -2.391,2.0742 -5.59,3.109 -9.594,3.109 -9.961,0 -14.941,-9.168 -14.941,-27.5039 V 28.168 H 477.41 v 39.234 c 0,5.2351 -0.203,9.7152 -0.617,13.4421 -1.086,8.109 -5.676,12.1598 -13.773,12.1598 -9.973,0 -14.958,-9.168 -14.958,-27.5039 z M 571.457,0.805078 h -15.43 V 102.344 h 15.43 V 90.816 l 5.59,7.911 c 2.047,1.726 4.832,3.097 8.359,4.105 3.524,1 7.199,1.5 11.02,1.5 6.918,0 12.926,-1.652 18.027,-4.957 5.09,-3.2969 8.934,-7.777 11.527,-13.4449 2.594,-5.6571 3.891,-12.102 3.891,-19.336 0,-6.598 -0.965,-12.516 -2.898,-17.75 -1.938,-5.2351 -4.582,-9.4769 -7.922,-12.723 -3.344,-3.2582 -7.153,-5.7262 -11.43,-7.4059 -4.273,-1.68 -8.844,-2.5242 -13.715,-2.5242 -3.226,0 -6.511,0.418 -9.855,1.2539 -3.352,0.8481 -5.938,1.977 -7.754,3.3871 l -4.84,7.3629 z m 0,65.241822 v -3.7617 c 0,-4.32 0.613,-8.152 1.844,-11.4961 1.219,-3.3442 2.844,-5.945 4.871,-7.809 2.027,-1.8629 4.223,-3.2692 6.586,-4.2071 2.371,-0.9328 4.832,-1.398 7.375,-1.398 6.371,0 11.543,2.4102 15.519,7.2301 3.985,4.8328 5.981,11.707 5.981,20.6219 0,8.2812 -1.836,15 -5.504,20.1562 -3.66,5.168 -8.766,7.7539 -15.317,7.7539 -3,0 -5.742,-0.4922 -8.23,-1.473 -2.477,-0.9762 -4.715,-2.5 -6.715,-4.5661 -2.004,-2.075 -3.578,-4.8949 -4.711,-8.457 -1.133,-3.575 -1.699,-7.7699 -1.699,-12.5941 z M 658.945,0.805078 H 643.516 V 102.344 h 15.429 V 90.816 l 5.594,7.911 c 2.043,1.726 4.828,3.097 8.356,4.105 3.523,1 7.199,1.5 11.023,1.5 6.914,0 12.922,-1.652 18.023,-4.957 5.09,-3.2969 8.934,-7.777 11.528,-13.4449 2.593,-5.6571 3.89,-12.102 3.89,-19.336 0,-6.598 -0.964,-12.516 -2.894,-17.75 -1.942,-5.2351 -4.582,-9.4769 -7.926,-12.723 -3.344,-3.2582 -7.152,-5.7262 -11.426,-7.4059 -4.277,-1.68 -8.847,-2.5242 -13.718,-2.5242 -3.227,0 -6.516,0.418 -9.872,1.2539 -3.339,0.8481 -5.921,1.977 -7.734,3.3871 l -4.844,7.3629 z m 0,65.241822 v -3.7617 c 0,-4.32 0.617,-8.152 1.844,-11.4961 1.223,-3.3442 2.844,-5.945 4.871,-7.809 2.028,-1.8629 4.223,-3.2692 6.586,-4.2071 2.363,-0.9328 4.82,-1.398 7.375,-1.398 6.371,0 11.543,2.4102 15.52,7.2301 3.988,4.8328 5.98,11.707 5.98,20.6219 0,8.2812 -1.836,15 -5.504,20.1562 -3.66,5.168 -8.765,7.7539 -15.316,7.7539 -3.008,0 -5.75,-0.4922 -8.227,-1.473 -2.48,-0.9762 -4.719,-2.5 -6.715,-4.5661 -2.007,-2.075 -3.578,-4.8949 -4.711,-8.457 -1.136,-3.575 -1.703,-7.7699 -1.703,-12.5941 z"
       style="fill:#4078c0;fill-opacity:1;fill-rule:nonzero;stroke:#ffffff;stroke-width:1.5;stroke-dasharray:none;stroke-opacity:1"
       id="path1067" />
    <path
       d="m 355.41,282.285 h -32.82 v 96.422 h 31.105 c 5.239,0 9.45,-0.18 12.637,-0.535 7.734,-1.047 13.672,-3.594 17.809,-7.649 4.14,-4.043 6.211,-9.414 6.211,-16.109 0,-10.144 -5.278,-16.988 -15.836,-20.531 12.875,-3.141 19.308,-10.832 19.308,-23.071 0,-4.234 -0.726,-8.058 -2.176,-11.468 -1.46,-3.41 -3.429,-6.207 -5.906,-8.387 -2.48,-2.187 -5.187,-3.941 -8.129,-5.258 -2.929,-1.324 -6.054,-2.238 -9.379,-2.738 -3.179,-0.453 -7.453,-0.676 -12.824,-0.676 z m -17.476,43.875 v -31.586 h 18.976 c 3.188,0 5.395,0.043 6.613,0.129 4.141,0.367 7.52,1.902 10.145,4.613 2.613,2.707 3.918,6.309 3.918,10.805 0,9.328 -4.731,14.539 -14.191,15.633 -1.864,0.269 -4.301,0.406 -7.305,0.406 z m 0,40.399 v -28.512 h 16.785 c 2.593,0 5.004,0.176 7.234,0.531 8.106,1.277 12.16,5.988 12.16,14.137 0,4.09 -1.172,7.25 -3.515,9.48 -2.344,2.227 -5.543,3.547 -9.598,3.961 -2.227,0.27 -4.66,0.403 -7.305,0.403 z"
       style="fill:#4078c0;fill-opacity:1;fill-rule:nonzero;stroke:#ffffff;stroke-width:1.5;stroke-dasharray:none;stroke-opacity:1"
       id="path1069" />
    <path
       d="m 431.81613,501.9394 c -6.04943,2.79219 -12.25892,5.29987 -18.6555,7.43619 -18.47242,6.24724 -38.23836,9.62442 -58.80163,9.62442 -20.76935,0 -40.71937,-3.45505 -59.35186,-9.8111 -6.36956,-2.16027 -12.57905,-4.66796 -18.60447,-7.51505 C 213.74848,472.34937 170.25,408.77187 170.25,335.25051 c 0,-73.60023 43.57652,-137.23263 106.33974,-166.53017 6.04943,-2.81914 12.25893,-5.32682 18.6565,-7.4871 C 313.7967,154.9281 333.69469,151.5 354.359,151.5 c 20.45822,0 40.16915,3.35023 58.56254,9.54656 6.39757,2.13632 12.63408,4.61705 18.68351,7.4362 63.08035,29.19172 106.89496,92.95688 106.89496,166.76775 0,73.732 -43.73658,137.44226 -106.68388,166.68889 z M 354.359,500.53981 c 15.24913,0 30.02407,-2.05546 44.0297,-5.93178 l -44.39685,-44.40752 -44.23678,44.24779 c 14.18971,3.98114 29.14872,6.09151 44.60393,6.09151 z m 0,-330.5796 c -15.34917,0 -30.23015,2.11036 -44.36883,6.04059 l 44.00168,44.0102 44.15875,-44.16992 c -13.95461,-3.84937 -28.6215,-5.88087 -43.7916,-5.88087 z m 63.26843,12.52543 -63.63558,63.66035 -63.42349,-63.44971 c -59.75102,24.99993 -101.82193,83.96537 -101.82193,152.55423 0,68.50999 41.96587,127.42053 101.61085,152.44742 h 0.027 l 63.60756,-63.6324 63.81865,63.87098 c 59.9621,-24.89511 102.19308,-83.96537 102.19308,-152.686 0,-68.7995 -42.33702,-127.92067 -102.37615,-152.76487"
       style="fill:#4078c0;fill-opacity:1;fill-rule:nonzero;stroke:#ffffff;stroke-width:1.5;stroke-dasharray:none;stroke-opacity:1"
       id="path1061" />
  </g>
</svg>
